<svg width="30" height="10" viewBox="10 0 96 27" fill="none" xmlns="http://www.w3.org/2000/svg" data-v-7c75715b=""><path d="M78.5025 27H72.2925C64.845 27 58.7925 20.9475 58.7925 13.5C58.7925 6.0525 64.845 0 72.2925 0C79.74 0 85.7925 6.0525 85.7925 13.5V26.73H80.3925V13.5C80.3925 9.0225 76.77 5.4 72.2925 5.4C67.815 5.4 64.1925 9.0225 64.1925 13.5C64.1925 17.9775 67.815 21.6 72.2925 21.6H78.5025V27Z" fill="#5155a6"></path><path d="M47.9925 26.73H42.5925V13.5C42.5925 6.0525 48.645 0 56.0925 0V5.4C51.615 5.4 47.9925 9.0225 47.9925 13.5V26.73Z" fill="#5155a6"></path><path d="M23.6925 27C16.245 27 10.1925 20.9475 10.1925 13.5C10.1925 6.0525 16.245 0 23.6925 0C31.14 0 37.1925 6.0525 37.1925 13.5V16.2H21.6675V10.8H31.32C30.195 7.65 27.2025 5.4 23.6925 5.4C19.215 5.4 15.5925 9.0225 15.5925 13.5C15.5925 17.9775 19.215 21.6 23.6925 21.6C26.3925 21.6 28.9125 20.25 30.42 18L34.8975 21.015C32.4 24.75 28.215 27 23.6925 27Z" fill="#5155a6"></path><path d="M107.077 5.40002H93.8925V26.73H107.077V5.40002Z" fill="#5155a6"></path></svg>